<?xml version="1.0" encoding="UTF-8"?>
<svg xmlns="http://www.w3.org/2000/svg" xmlns:xlink="http://www.w3.org/1999/xlink" viewBox="0 0 779.74 556.37">
  <defs>
    <style>
      .cls-1 {
        fill: aqua;
      }

      .cls-2 {
        stroke-width: 2.25px;
      }

      .cls-2, .cls-3, .cls-4, .cls-5, .cls-6, .cls-7, .cls-8, .cls-9, .cls-10, .cls-11, .cls-12, .cls-13 {
        fill: none;
      }

      .cls-2, .cls-3, .cls-4, .cls-5, .cls-6, .cls-8, .cls-9, .cls-10, .cls-12, .cls-13 {
        stroke: #231f20;
        stroke-dasharray: 0 6.5;
        stroke-linecap: round;
      }

      .cls-14 {
        fill: url(#Undulating_Coarse_Dots);
      }

      .cls-14, .cls-15, .cls-16, .cls-11, .cls-17, .cls-18 {
        font-family: ShowcardGothic-Reg, 'Showcard Gothic';
        font-size: 95px;
      }

      .cls-3 {
        stroke-width: 5px;
      }

      .cls-4 {
        stroke-width: 4.39px;
      }

      .cls-5 {
        stroke-width: 2.56px;
      }

      .cls-6 {
        stroke-width: 3.78px;
      }

      .cls-19 {
        fill: #ffffea;
      }

      .cls-20 {
        mix-blend-mode: saturation;
      }

      .cls-20, .cls-21, .cls-22 {
        opacity: .2;
      }

      .cls-21 {
        fill: #231f20;
      }

      .cls-21, .cls-22 {
        mix-blend-mode: multiply;
      }

      .cls-8 {
        stroke-width: 3.47px;
      }

      .cls-15 {
        fill: #58595b;
      }

      .cls-23 {
        opacity: .8;
      }

      .cls-16 {
        fill: #f15a24;
      }

      .cls-24 {
        isolation: isolate;
      }

      .cls-9 {
        stroke-width: 3.17px;
      }

      .cls-10 {
        stroke-width: 4.69px;
      }

      .cls-11 {
        stroke: #ff0;
        stroke-width: 6px;
      }

      .cls-12 {
        stroke-width: 4.08px;
      }

      .cls-13 {
        stroke-width: 2.86px;
      }

      .cls-25 {
        fill: url(#linear-gradient);
      }

      .cls-18 {
        fill: #f77d0f;
      }
    </style>
    <linearGradient id="linear-gradient" x1="395.9" y1="195.31" x2="395.9" y2="272.36" gradientUnits="userSpaceOnUse">
      <stop offset="0" stop-color="#fcee21"/>
      <stop offset="1" stop-color="#f7931e"/>
    </linearGradient>
    <pattern id="Undulating_Coarse_Dots" data-name="Undulating Coarse Dots" x="0" y="0" width="83" height="65" patternTransform="translate(-1725.47 -1291.7)" patternUnits="userSpaceOnUse" viewBox="0 0 83 65">
      <g>
        <rect class="cls-7" width="83" height="65"/>
        <line class="cls-3" x1="83" y1="65" x2="83" y2="130.5"/>
        <g>
          <line class="cls-3" y1="65" y2="130.5"/>
          <line class="cls-10" x1="4.61" y1="61.75" x2="4.61" y2="130.5"/>
          <line class="cls-4" x1="9.22" y1="65" x2="9.22" y2="130.5"/>
          <line class="cls-12" x1="13.83" y1="61.75" x2="13.83" y2="130.5"/>
          <line class="cls-6" x1="18.44" y1="65" x2="18.44" y2="130.5"/>
          <line class="cls-8" x1="23.06" y1="61.75" x2="23.06" y2="130.5"/>
          <line class="cls-9" x1="27.67" y1="65" x2="27.67" y2="130.5"/>
          <line class="cls-13" x1="32.28" y1="61.75" x2="32.28" y2="130.5"/>
          <line class="cls-5" x1="36.89" y1="65" x2="36.89" y2="130.5"/>
          <line class="cls-2" x1="41.5" y1="61.75" x2="41.5" y2="130.5"/>
          <line class="cls-3" x1="83" y1="65" x2="83" y2="130.5"/>
          <line class="cls-10" x1="78.39" y1="61.75" x2="78.39" y2="130.5"/>
          <line class="cls-4" x1="73.78" y1="65" x2="73.78" y2="130.5"/>
          <line class="cls-12" x1="69.17" y1="61.75" x2="69.17" y2="130.5"/>
          <line class="cls-6" x1="64.56" y1="65" x2="64.56" y2="130.5"/>
          <line class="cls-8" x1="59.94" y1="61.75" x2="59.94" y2="130.5"/>
          <line class="cls-9" x1="55.33" y1="65" x2="55.33" y2="130.5"/>
          <line class="cls-13" x1="50.72" y1="61.75" x2="50.72" y2="130.5"/>
          <line class="cls-5" x1="46.11" y1="65" x2="46.11" y2="130.5"/>
        </g>
        <line class="cls-3" y1="65" y2="130.5"/>
        <line class="cls-3" x1="83" x2="83" y2="65.5"/>
        <g>
          <line class="cls-3" y2="65.5"/>
          <line class="cls-10" x1="4.61" y1="-3.25" x2="4.61" y2="65.5"/>
          <line class="cls-4" x1="9.22" x2="9.22" y2="65.5"/>
          <line class="cls-12" x1="13.83" y1="-3.25" x2="13.83" y2="65.5"/>
          <line class="cls-6" x1="18.44" x2="18.44" y2="65.5"/>
          <line class="cls-8" x1="23.06" y1="-3.25" x2="23.06" y2="65.5"/>
          <line class="cls-9" x1="27.67" x2="27.67" y2="65.5"/>
          <line class="cls-13" x1="32.28" y1="-3.25" x2="32.28" y2="65.5"/>
          <line class="cls-5" x1="36.89" x2="36.89" y2="65.5"/>
          <line class="cls-2" x1="41.5" y1="-3.25" x2="41.5" y2="65.5"/>
          <line class="cls-3" x1="83" x2="83" y2="65.5"/>
          <line class="cls-10" x1="78.39" y1="-3.25" x2="78.39" y2="65.5"/>
          <line class="cls-4" x1="73.78" x2="73.78" y2="65.5"/>
          <line class="cls-12" x1="69.17" y1="-3.25" x2="69.17" y2="65.5"/>
          <line class="cls-6" x1="64.56" x2="64.56" y2="65.5"/>
          <line class="cls-8" x1="59.94" y1="-3.25" x2="59.94" y2="65.5"/>
          <line class="cls-9" x1="55.33" x2="55.33" y2="65.5"/>
          <line class="cls-13" x1="50.72" y1="-3.25" x2="50.72" y2="65.5"/>
          <line class="cls-5" x1="46.11" x2="46.11" y2="65.5"/>
        </g>
        <line class="cls-3" y2="65.5"/>
        <line class="cls-3" x1="83" y1="-65" x2="83" y2=".5"/>
        <g>
          <line class="cls-3" y1="-65" y2=".5"/>
          <line class="cls-10" x1="4.61" y1="-68.25" x2="4.61" y2=".5"/>
          <line class="cls-4" x1="9.22" y1="-65" x2="9.22" y2=".5"/>
          <line class="cls-12" x1="13.83" y1="-68.25" x2="13.83" y2=".5"/>
          <line class="cls-6" x1="18.44" y1="-65" x2="18.44" y2=".5"/>
          <line class="cls-8" x1="23.06" y1="-68.25" x2="23.06" y2=".5"/>
          <line class="cls-9" x1="27.67" y1="-65" x2="27.67" y2=".5"/>
          <line class="cls-13" x1="32.28" y1="-68.25" x2="32.28" y2=".5"/>
          <line class="cls-5" x1="36.89" y1="-65" x2="36.89" y2=".5"/>
          <line class="cls-2" x1="41.5" y1="-68.25" x2="41.5" y2=".5"/>
          <line class="cls-3" x1="83" y1="-65" x2="83" y2=".5"/>
          <line class="cls-10" x1="78.39" y1="-68.25" x2="78.39" y2=".5"/>
          <line class="cls-4" x1="73.78" y1="-65" x2="73.78" y2=".5"/>
          <line class="cls-12" x1="69.17" y1="-68.25" x2="69.17" y2=".5"/>
          <line class="cls-6" x1="64.56" y1="-65" x2="64.56" y2=".5"/>
          <line class="cls-8" x1="59.94" y1="-68.25" x2="59.94" y2=".5"/>
          <line class="cls-9" x1="55.33" y1="-65" x2="55.33" y2=".5"/>
          <line class="cls-13" x1="50.72" y1="-68.25" x2="50.72" y2=".5"/>
          <line class="cls-5" x1="46.11" y1="-65" x2="46.11" y2=".5"/>
        </g>
        <line class="cls-3" y1="-65" y2=".5"/>
      </g>
    </pattern>
  </defs>
  <g class="cls-24">
    <g id="Layer_2" data-name="Layer 2">
      <g id="Layer_2-2" data-name="Layer 2">
        <g>
          <path class="cls-21" d="M725.97,150.06c-179.7,67.15-194.73,83.84-40.62,106.25-170.85,9.52-172.72,31.6-51.21,102.58-149.61-47.25-172.02-48.05-109.16,38.71-95.6-70.54-108.04-51.94-95.82,64.86-48.62-106.9-68.77-116.64-115.47-7.39,10.26-106.65-8.66-94.6-113.73,21.91,68.82-122.75,56.02-140.84-96.12-62.51,121.53-97.38,100.11-104.15-88.84-71.03,179.7-67.15,194.73-83.84,40.62-106.25,170.85-9.52,172.72-31.6,51.21-102.58,149.61,47.25,172.02,48.05,109.16-38.71,95.6,70.54,108.04,51.94,95.82-64.86,48.62,106.9,68.77,116.64,115.47,7.39-10.26,106.65,8.66,94.6,113.73-21.91-68.82,122.75-56.02,140.84,96.12,62.51-121.53,97.38-100.11,104.15,88.84,71.03Z"/>
          <path class="cls-19" d="M710.97,135.06c-179.7,67.15-194.73,83.84-40.62,106.25-170.85,9.52-172.72,31.6-51.21,102.58-149.61-47.25-172.02-48.05-109.16,38.71-95.6-70.54-108.04-51.94-95.82,64.86-48.62-106.9-68.77-116.64-115.47-7.39,10.26-106.65-8.66-94.6-113.73,21.91,68.82-122.75,56.02-140.84-96.12-62.51,121.53-97.38,100.11-104.15-88.84-71.03,179.7-67.15,194.73-83.84,40.62-106.25,170.85-9.52,172.72-31.6,51.21-102.58,149.61,47.25,172.02,48.05,109.16-38.71,95.6,70.54,108.04,51.94,95.82-64.86,48.62,106.9,68.77,116.64,115.47,7.39-10.26,106.65,8.66,94.6,113.73-21.91-68.82,122.75-56.02,140.84,96.12,62.51-121.53,97.38-100.11,104.15,88.84,71.03Z"/>
          <path class="cls-1" d="M225.99,402.85c10.04-24.6,11.27-39.24,5.45-49.18-3.04-5.2-9.56-11.39-23.31-11.39-12.38,0-30.26,4.98-56.24,15.96,19.9-19.92,25.32-31.98,21.64-42.46-4.76-13.56-22.63-15.29-37.67-15.29-11.54,0-26.56,1.18-46.97,3.78,10.31-4.41,18.98-8.37,26.43-12.03,25.74-12.66,42.55-24.19,40.94-39.29-1.24-11.61-11.97-19.67-40.3-27.08,47.11-6.17,66.41-15.56,70.22-31.37,3.73-15.49-10.94-29.87-22.3-39.33-2.08-1.74-4.34-3.53-6.77-5.38,27.69,7.7,47.19,11.74,60.16,11.74s20.61-3.84,24.47-11.41c3.98-7.79,2.71-17.61-5.43-33.23,18.1,10.66,31.22,15.34,41.82,15.34,8.42,0,15.66-3.09,20.93-8.94,8.62-9.57,12.28-25.89,11.51-56.43,16.15,29.28,30.06,44.07,46.7,44.07,14.52,0,27.4-11.08,42.74-38.59.71,14.26,3.4,22.74,8.29,28.12,3.68,4.05,8.54,6.19,14.06,6.19,13.37,0,30.58-12.86,62.61-46-10.04,24.6-11.27,39.24-5.45,49.18,3.04,5.2,9.56,11.39,23.31,11.39,12.38,0,30.26-4.98,56.24-15.96-19.9,19.92-25.32,31.98-21.64,42.46,4.76,13.56,22.63,15.29,37.67,15.29,11.54,0,26.56-1.18,46.97-3.78-10.31,4.41-18.98,8.37-26.43,12.03-25.74,12.66-42.55,24.19-40.94,39.29,1.24,11.61,11.97,19.67,40.3,27.08-47.11,6.17-66.41,15.56-70.22,31.37-3.73,15.49,10.94,29.87,22.3,39.33,2.08,1.74,4.34,3.53,6.77,5.38-27.69-7.7-47.19-11.74-60.16-11.74s-20.61,3.84-24.47,11.41c-3.98,7.79-2.71,17.61,5.43,33.23-18.1-10.66-31.22-15.34-41.82-15.34-8.42,0-15.66,3.09-20.93,8.94-8.62,9.57-12.28,25.89-11.51,56.43-16.15-29.28-30.06-44.07-46.7-44.07-14.52,0-27.4,11.08-42.74,38.59-.71-14.26-3.4-22.74-8.29-28.12-3.68-4.05-8.54-6.19-14.06-6.19-13.37,0-30.58,12.86-62.61,46Z"/>
        </g>
        <polygon class="cls-19" points="352.73 51.38 342.53 16.3 358.33 49.23 352.73 51.38 352.73 51.38"/>
        <path class="cls-19" d="M369.75,32.7L378.06,0l2.94.61-8.31,32.7-2.94-.61h0ZM372.69,33.3l5.37-33.3,2.94.61-5.37,33.3-2.94-.61h0Z"/>
        <path class="cls-19" d="M41.01,348.32l-32.81,33.86-2.22-2.02,32.81-33.86,2.22,2.02h0ZM38.79,346.3l-30.59,35.88-2.22-2.02,30.59-35.88,2.22,2.02h0Z"/>
        <path class="cls-19" d="M60.9,369.69l-35.81,12.88-1.13-2.78,35.81-12.88,1.13,2.78h0ZM59.77,366.91l-34.69,15.66-1.13-2.78,34.69-15.66,1.13,2.78h0Z"/>
        <polygon class="cls-19" points="731.64 162.01 757.92 136.65 736.15 165.97 731.64 162.01 731.64 162.01"/>
        <path class="cls-19" d="M723.28,124.58l55.38-19.75,1.08,2.8-55.38,19.75-1.08-2.8h0ZM724.36,127.38l54.3-22.55,1.08,2.8-54.3,22.55-1.08-2.8h0Z"/>
        <path class="cls-19" d="M532.87,500.15l4.15,55.91-2.98.3-4.15-55.91,2.98-.3h0ZM529.89,500.46l7.14,55.61-2.98.3-7.14-55.61,2.98-.3h0Z"/>
        <path class="cls-19" d="M502.92,516.21l19.46,32.36-2.51,1.65-19.46-32.36,2.51-1.65h0ZM500.42,517.86l21.97,30.71-2.51,1.65-21.97-30.71,2.51-1.65h0Z"/>
      </g>
      <g id="Layer_4" data-name="Layer 4">
        <g>
          <g class="cls-22">
            <text class="cls-17" transform="translate(35.47 303.46)"><tspan x="0" y="0">WICKEDSTATS</tspan></text>
            <text class="cls-17" transform="translate(35.77 303.16)"><tspan x="0" y="0">WICKEDSTATS</tspan></text>
            <text class="cls-17" transform="translate(36.07 302.86)"><tspan x="0" y="0">WICKEDSTATS</tspan></text>
            <text class="cls-17" transform="translate(36.37 302.56)"><tspan x="0" y="0">WICKEDSTATS</tspan></text>
            <text class="cls-17" transform="translate(36.67 302.26)"><tspan x="0" y="0">WICKEDSTATS</tspan></text>
            <text class="cls-17" transform="translate(36.97 301.96)"><tspan x="0" y="0">WICKEDSTATS</tspan></text>
            <text class="cls-17" transform="translate(37.27 301.66)"><tspan x="0" y="0">WICKEDSTATS</tspan></text>
            <text class="cls-17" transform="translate(37.57 301.36)"><tspan x="0" y="0">WICKEDSTATS</tspan></text>
            <text class="cls-17" transform="translate(37.87 301.06)"><tspan x="0" y="0">WICKEDSTATS</tspan></text>
            <text class="cls-17" transform="translate(38.17 300.76)"><tspan x="0" y="0">WICKEDSTATS</tspan></text>
            <text class="cls-17" transform="translate(38.47 300.46)"><tspan x="0" y="0">WICKEDSTATS</tspan></text>
            <text class="cls-17" transform="translate(38.77 300.16)"><tspan x="0" y="0">WICKEDSTATS</tspan></text>
            <text class="cls-17" transform="translate(39.07 299.86)"><tspan x="0" y="0">WICKEDSTATS</tspan></text>
            <text class="cls-17" transform="translate(39.37 299.56)"><tspan x="0" y="0">WICKEDSTATS</tspan></text>
            <text class="cls-17" transform="translate(39.67 299.26)"><tspan x="0" y="0">WICKEDSTATS</tspan></text>
            <text class="cls-17" transform="translate(39.97 298.96)"><tspan x="0" y="0">WICKEDSTATS</tspan></text>
            <text class="cls-17" transform="translate(40.27 298.66)"><tspan x="0" y="0">WICKEDSTATS</tspan></text>
            <text class="cls-17" transform="translate(40.57 298.36)"><tspan x="0" y="0">WICKEDSTATS</tspan></text>
            <text class="cls-17" transform="translate(40.87 298.06)"><tspan x="0" y="0">WICKEDSTATS</tspan></text>
            <text class="cls-17" transform="translate(41.17 297.76)"><tspan x="0" y="0">WICKEDSTATS</tspan></text>
            <text class="cls-17" transform="translate(41.47 297.46)"><tspan x="0" y="0">WICKEDSTATS</tspan></text>
            <text class="cls-17" transform="translate(41.77 297.16)"><tspan x="0" y="0">WICKEDSTATS</tspan></text>
            <text class="cls-17" transform="translate(42.07 296.86)"><tspan x="0" y="0">WICKEDSTATS</tspan></text>
            <text class="cls-17" transform="translate(42.37 296.56)"><tspan x="0" y="0">WICKEDSTATS</tspan></text>
            <text class="cls-17" transform="translate(42.67 296.26)"><tspan x="0" y="0">WICKEDSTATS</tspan></text>
            <text class="cls-17" transform="translate(42.97 295.96)"><tspan x="0" y="0">WICKEDSTATS</tspan></text>
            <text class="cls-17" transform="translate(43.27 295.66)"><tspan x="0" y="0">WICKEDSTATS</tspan></text>
            <text class="cls-17" transform="translate(43.57 295.36)"><tspan x="0" y="0">WICKEDSTATS</tspan></text>
            <text class="cls-17" transform="translate(43.87 295.06)"><tspan x="0" y="0">WICKEDSTATS</tspan></text>
            <text class="cls-17" transform="translate(44.17 294.76)"><tspan x="0" y="0">WICKEDSTATS</tspan></text>
            <text class="cls-17" transform="translate(44.47 294.46)"><tspan x="0" y="0">WICKEDSTATS</tspan></text>
            <text class="cls-17" transform="translate(44.77 294.16)"><tspan x="0" y="0">WICKEDSTATS</tspan></text>
            <text class="cls-17" transform="translate(45.07 293.86)"><tspan x="0" y="0">WICKEDSTATS</tspan></text>
            <text class="cls-17" transform="translate(45.37 293.56)"><tspan x="0" y="0">WICKEDSTATS</tspan></text>
            <text class="cls-17" transform="translate(45.67 293.26)"><tspan x="0" y="0">WICKEDSTATS</tspan></text>
            <text class="cls-17" transform="translate(45.97 292.96)"><tspan x="0" y="0">WICKEDSTATS</tspan></text>
            <text class="cls-17" transform="translate(46.27 292.66)"><tspan x="0" y="0">WICKEDSTATS</tspan></text>
            <text class="cls-17" transform="translate(46.57 292.36)"><tspan x="0" y="0">WICKEDSTATS</tspan></text>
            <text class="cls-17" transform="translate(46.87 292.06)"><tspan x="0" y="0">WICKEDSTATS</tspan></text>
            <text class="cls-17" transform="translate(47.17 291.76)"><tspan x="0" y="0">WICKEDSTATS</tspan></text>
            <text class="cls-17" transform="translate(47.47 291.46)"><tspan x="0" y="0">WICKEDSTATS</tspan></text>
            <text class="cls-17" transform="translate(47.77 291.16)"><tspan x="0" y="0">WICKEDSTATS</tspan></text>
            <text class="cls-17" transform="translate(48.07 290.86)"><tspan x="0" y="0">WICKEDSTATS</tspan></text>
            <text class="cls-17" transform="translate(48.37 290.56)"><tspan x="0" y="0">WICKEDSTATS</tspan></text>
            <text class="cls-17" transform="translate(48.67 290.26)"><tspan x="0" y="0">WICKEDSTATS</tspan></text>
            <text class="cls-17" transform="translate(48.97 289.96)"><tspan x="0" y="0">WICKEDSTATS</tspan></text>
            <text class="cls-17" transform="translate(49.27 289.66)"><tspan x="0" y="0">WICKEDSTATS</tspan></text>
            <text class="cls-17" transform="translate(49.57 289.36)"><tspan x="0" y="0">WICKEDSTATS</tspan></text>
            <text class="cls-17" transform="translate(49.87 289.06)"><tspan x="0" y="0">WICKEDSTATS</tspan></text>
            <text class="cls-17" transform="translate(50.17 288.76)"><tspan x="0" y="0">WICKEDSTATS</tspan></text>
            <text class="cls-17" transform="translate(50.47 288.46)"><tspan x="0" y="0">WICKEDSTATS</tspan></text>
            <text class="cls-17" transform="translate(50.77 288.16)"><tspan x="0" y="0">WICKEDSTATS</tspan></text>
            <text class="cls-17" transform="translate(51.07 287.86)"><tspan x="0" y="0">WICKEDSTATS</tspan></text>
            <text class="cls-17" transform="translate(51.37 287.56)"><tspan x="0" y="0">WICKEDSTATS</tspan></text>
            <text class="cls-17" transform="translate(51.67 287.26)"><tspan x="0" y="0">WICKEDSTATS</tspan></text>
            <text class="cls-17" transform="translate(51.97 286.96)"><tspan x="0" y="0">WICKEDSTATS</tspan></text>
            <text class="cls-17" transform="translate(52.27 286.66)"><tspan x="0" y="0">WICKEDSTATS</tspan></text>
            <text class="cls-17" transform="translate(52.57 286.36)"><tspan x="0" y="0">WICKEDSTATS</tspan></text>
            <text class="cls-17" transform="translate(52.87 286.06)"><tspan x="0" y="0">WICKEDSTATS</tspan></text>
            <text class="cls-17" transform="translate(53.17 285.76)"><tspan x="0" y="0">WICKEDSTATS</tspan></text>
            <text class="cls-17" transform="translate(53.47 285.46)"><tspan x="0" y="0">WICKEDSTATS</tspan></text>
            <text class="cls-17" transform="translate(53.77 285.16)"><tspan x="0" y="0">WICKEDSTATS</tspan></text>
            <text class="cls-17" transform="translate(54.07 284.86)"><tspan x="0" y="0">WICKEDSTATS</tspan></text>
            <text class="cls-17" transform="translate(54.37 284.56)"><tspan x="0" y="0">WICKEDSTATS</tspan></text>
            <text class="cls-17" transform="translate(54.67 284.26)"><tspan x="0" y="0">WICKEDSTATS</tspan></text>
            <text class="cls-17" transform="translate(54.97 283.96)"><tspan x="0" y="0">WICKEDSTATS</tspan></text>
            <text class="cls-17" transform="translate(55.27 283.66)"><tspan x="0" y="0">WICKEDSTATS</tspan></text>
            <text class="cls-17" transform="translate(55.57 283.36)"><tspan x="0" y="0">WICKEDSTATS</tspan></text>
            <text class="cls-17" transform="translate(55.87 283.06)"><tspan x="0" y="0">WICKEDSTATS</tspan></text>
            <text class="cls-17" transform="translate(56.17 282.76)"><tspan x="0" y="0">WICKEDSTATS</tspan></text>
            <text class="cls-17" transform="translate(56.47 282.46)"><tspan x="0" y="0">WICKEDSTATS</tspan></text>
            <text class="cls-17" transform="translate(56.77 282.16)"><tspan x="0" y="0">WICKEDSTATS</tspan></text>
            <text class="cls-17" transform="translate(57.07 281.86)"><tspan x="0" y="0">WICKEDSTATS</tspan></text>
            <text class="cls-17" transform="translate(57.37 281.56)"><tspan x="0" y="0">WICKEDSTATS</tspan></text>
            <text class="cls-17" transform="translate(57.67 281.26)"><tspan x="0" y="0">WICKEDSTATS</tspan></text>
            <text class="cls-17" transform="translate(57.97 280.96)"><tspan x="0" y="0">WICKEDSTATS</tspan></text>
            <text class="cls-17" transform="translate(58.27 280.66)"><tspan x="0" y="0">WICKEDSTATS</tspan></text>
            <text class="cls-17" transform="translate(58.57 280.36)"><tspan x="0" y="0">WICKEDSTATS</tspan></text>
            <text class="cls-17" transform="translate(58.87 280.06)"><tspan x="0" y="0">WICKEDSTATS</tspan></text>
            <text class="cls-17" transform="translate(59.17 279.76)"><tspan x="0" y="0">WICKEDSTATS</tspan></text>
            <text class="cls-17" transform="translate(59.47 279.46)"><tspan x="0" y="0">WICKEDSTATS</tspan></text>
          </g>
          <g>
            <text class="cls-15" transform="translate(47.47 291.46)"><tspan x="0" y="0">WICKEDSTATS</tspan></text>
            <text class="cls-15" transform="translate(47.77 291.16)"><tspan x="0" y="0">WICKEDSTATS</tspan></text>
            <text class="cls-15" transform="translate(48.07 290.86)"><tspan x="0" y="0">WICKEDSTATS</tspan></text>
            <text class="cls-15" transform="translate(48.37 290.56)"><tspan x="0" y="0">WICKEDSTATS</tspan></text>
            <text class="cls-15" transform="translate(48.67 290.26)"><tspan x="0" y="0">WICKEDSTATS</tspan></text>
            <text class="cls-15" transform="translate(48.97 289.96)"><tspan x="0" y="0">WICKEDSTATS</tspan></text>
            <text class="cls-15" transform="translate(49.27 289.66)"><tspan x="0" y="0">WICKEDSTATS</tspan></text>
            <text class="cls-15" transform="translate(49.57 289.36)"><tspan x="0" y="0">WICKEDSTATS</tspan></text>
            <text class="cls-15" transform="translate(49.87 289.06)"><tspan x="0" y="0">WICKEDSTATS</tspan></text>
            <text class="cls-15" transform="translate(50.17 288.76)"><tspan x="0" y="0">WICKEDSTATS</tspan></text>
            <text class="cls-15" transform="translate(50.47 288.46)"><tspan x="0" y="0">WICKEDSTATS</tspan></text>
            <text class="cls-15" transform="translate(50.77 288.16)"><tspan x="0" y="0">WICKEDSTATS</tspan></text>
            <text class="cls-15" transform="translate(51.07 287.86)"><tspan x="0" y="0">WICKEDSTATS</tspan></text>
            <text class="cls-15" transform="translate(51.37 287.56)"><tspan x="0" y="0">WICKEDSTATS</tspan></text>
            <text class="cls-15" transform="translate(51.67 287.26)"><tspan x="0" y="0">WICKEDSTATS</tspan></text>
            <text class="cls-15" transform="translate(51.97 286.96)"><tspan x="0" y="0">WICKEDSTATS</tspan></text>
            <text class="cls-15" transform="translate(52.27 286.66)"><tspan x="0" y="0">WICKEDSTATS</tspan></text>
            <text class="cls-15" transform="translate(52.57 286.36)"><tspan x="0" y="0">WICKEDSTATS</tspan></text>
            <text class="cls-15" transform="translate(52.87 286.06)"><tspan x="0" y="0">WICKEDSTATS</tspan></text>
            <text class="cls-15" transform="translate(53.17 285.76)"><tspan x="0" y="0">WICKEDSTATS</tspan></text>
            <text class="cls-15" transform="translate(53.47 285.46)"><tspan x="0" y="0">WICKEDSTATS</tspan></text>
            <text class="cls-15" transform="translate(53.77 285.16)"><tspan x="0" y="0">WICKEDSTATS</tspan></text>
            <text class="cls-15" transform="translate(54.07 284.86)"><tspan x="0" y="0">WICKEDSTATS</tspan></text>
            <text class="cls-15" transform="translate(54.37 284.56)"><tspan x="0" y="0">WICKEDSTATS</tspan></text>
            <text class="cls-15" transform="translate(54.67 284.26)"><tspan x="0" y="0">WICKEDSTATS</tspan></text>
            <text class="cls-15" transform="translate(54.97 283.96)"><tspan x="0" y="0">WICKEDSTATS</tspan></text>
            <text class="cls-15" transform="translate(55.27 283.66)"><tspan x="0" y="0">WICKEDSTATS</tspan></text>
            <text class="cls-15" transform="translate(55.57 283.36)"><tspan x="0" y="0">WICKEDSTATS</tspan></text>
            <text class="cls-15" transform="translate(55.87 283.06)"><tspan x="0" y="0">WICKEDSTATS</tspan></text>
            <text class="cls-15" transform="translate(56.17 282.76)"><tspan x="0" y="0">WICKEDSTATS</tspan></text>
            <text class="cls-15" transform="translate(56.47 282.46)"><tspan x="0" y="0">WICKEDSTATS</tspan></text>
            <text class="cls-15" transform="translate(56.77 282.16)"><tspan x="0" y="0">WICKEDSTATS</tspan></text>
            <text class="cls-15" transform="translate(57.07 281.86)"><tspan x="0" y="0">WICKEDSTATS</tspan></text>
            <text class="cls-15" transform="translate(57.37 281.56)"><tspan x="0" y="0">WICKEDSTATS</tspan></text>
            <text class="cls-15" transform="translate(57.67 281.26)"><tspan x="0" y="0">WICKEDSTATS</tspan></text>
            <text class="cls-15" transform="translate(57.97 280.96)"><tspan x="0" y="0">WICKEDSTATS</tspan></text>
            <text class="cls-15" transform="translate(58.27 280.66)"><tspan x="0" y="0">WICKEDSTATS</tspan></text>
            <text class="cls-15" transform="translate(58.57 280.36)"><tspan x="0" y="0">WICKEDSTATS</tspan></text>
            <text class="cls-15" transform="translate(58.87 280.06)"><tspan x="0" y="0">WICKEDSTATS</tspan></text>
            <text class="cls-15" transform="translate(59.17 279.76)"><tspan x="0" y="0">WICKEDSTATS</tspan></text>
            <text class="cls-15" transform="translate(59.47 279.46)"><tspan x="0" y="0">WICKEDSTATS</tspan></text>
          </g>
          <text class="cls-16" transform="translate(59.47 279.46)"><tspan x="0" y="0">WICKEDSTATS</tspan></text>
          <text class="cls-18" transform="translate(64.47 274.46)"><tspan x="0" y="0">WICKEDSTATS</tspan></text>
          <g>
            <path class="cls-25" d="M167.93,197.21c-2.72,7.64-6.96,20.18-12.71,37.62-2.5,8.1-5.83,19.31-9.97,33.63h-16.65c-1.55-6.49-4.33-17.58-8.35-33.26-2.54,8.07-5.95,19.16-10.25,33.26h-16.42c-1.98-7.08-5.37-18.65-10.16-34.7-2.81-8.81-6.97-21-12.48-36.55h31.64c.65,3.03,1.79,7.93,3.43,14.71l4.92,18.55c.9-2.57,2.23-7.04,3.99-13.41-1.45-5.41-3.31-12.03-5.57-19.85h28.76c.49,2.97,1.31,7.78,2.46,14.43.83,4.42,1.98,10.7,3.43,18.83l4.78-18.93c.87-3.59,1.87-8.37,3.02-14.33h16.14Z"/>
            <path class="cls-25" d="M202.49,197.21l-1.81,37.9c-.34,8.16-.74,19.28-1.21,33.35h-26.02l-3.15-71.25h32.19Z"/>
            <path class="cls-25" d="M258.71,226.39c-1.7-.53-3.88-.79-6.54-.79-4.95,0-8.97,1.3-12.06,3.9-3.5,2.91-5.24,7.1-5.24,12.57,0,4.27,1.38,7.77,4.15,10.51,2.77,2.74,6.39,4.11,10.88,4.11,3.06,0,5.97-.76,8.72-2.27-.31,1.27-.83,3.6-1.58,7-.43,2.26-.85,4.61-1.25,7.05-3.46,1.33-7.9,1.99-13.31,1.99-9.8,0-18.18-3.29-25.14-9.88-7.55-7.17-11.32-16.51-11.32-28.02,0-10.64,3.25-19.23,9.74-25.79,6.93-6.99,16.5-10.48,28.71-10.48,5.88,0,10.13.34,12.76,1.02l1.48,29.08Z"/>
            <path class="cls-25" d="M330.19,200.92c-1.7,3.15-5.18,9.8-10.44,19.95-2.88,5.6-6.83,13.07-11.88,22.41.43.68,2.94,3.54,7.51,8.58,2.69,2.88,6.51,6.54,11.46,10.99-2.07.9-5.46,2.35-10.16,4.36-2.63,1.17-6.32,2.89-11.09,5.15-1.18-1.42-3.59-4.75-7.24-9.97-2.04-3.09-4.01-6.39-5.89-9.88h-.19l-.46,15.96h-25.65l-1.25-37.06c-.34-8.1-1.07-19.5-2.18-34.19h32.29l-1.81,31.26h.32c1.3-3.65,3.39-9.66,6.26-18.04,1.17-3.65,2.69-8.66,4.55-15.03l13.13,2.88c4.27.93,8.5,1.81,12.71,2.64Z"/>
            <path class="cls-25" d="M380.85,197.21l-1.99,29.36c-1.14-.19-3.62-.51-7.42-.97-2.6-.25-5.44-.4-8.54-.46l-.7,8.86c3.4.09,8.95.02,16.65-.23-.34,1.14-.88,3.28-1.62,6.4-.43,1.89-.82,4.07-1.16,6.54-.9-.22-3.14-.49-6.73-.83-1.67-.09-4.14-.12-7.42-.09l-.46,10.34c2.32-.03,6.59-.23,12.8-.6,1.17-.09,3.11-.46,5.8-1.11-.25.96-.82,3.26-1.72,6.91-.43,1.89-.96,4.27-1.58,7.14h-41.52l-1.35-36.37c-.25-8.32-.85-19.95-1.81-34.88h48.75Z"/>
            <path class="cls-25" d="M448.2,233.39c0,11.16-3.46,19.95-10.39,26.35-7.14,6.65-17.21,9.97-30.2,9.97-8.35,0-14.8-.42-19.34-1.25l-1.25-34.46c-.4-8.84-1.13-21.04-2.18-36.6,6.71-.96,13.71-1.44,21.01-1.44,13.02,0,23.21,3.03,30.57,9.09,7.85,6.49,11.78,15.94,11.78,28.34ZM429.18,239.1c0-4.54-1.47-7.9-4.41-10.07-2.44-1.79-5.57-2.61-9.37-2.46l-.65,29.08c3.96-.25,7.19-1.53,9.69-3.85,3.15-2.88,4.73-7.11,4.73-12.71Z"/>
            <path class="cls-25" d="M495.89,226.39c-2.29-.53-4.02-.79-5.2-.79-1.45,0-2.78.5-3.99,1.48-1.45,1.21-2.18,2.77-2.18,4.69,0,1.48,1.33,4.34,3.99,8.58,2.66,4.24,3.99,8.13,3.99,11.69,0,5.17-1.96,9.4-5.89,12.71-3.74,3.19-8.37,4.78-13.87,4.78-5.07,0-8.81-.36-11.23-1.07-.28-1.42-.76-3.74-1.44-6.96-.43-1.73-1.04-4.04-1.81-6.91,3.4.83,5.69,1.25,6.87,1.25,4.61,0,6.91-1.75,6.91-5.24,0-2.54-.93-4.81-2.78-6.82-3.03-2.66-6.06-5.33-9.09-8.03-5.88-5.2-8.81-11.36-8.81-18.51s2.78-13.1,8.35-16.93c4.85-3.34,11.32-5.01,19.39-5.01,4.58,0,9.71.67,15.4,2l1.39,29.08Z"/>
            <path class="cls-25" d="M556.14,197.21l-1.35,29.18c-1.21-.19-3.14-.42-5.8-.7-1.64-.09-4.3-.19-7.98-.28-.19,1.83-.51,6.23-.97,13.22-.34,6.77-.9,16.71-1.67,29.83h-22.45c-.25-6.25-.71-16.07-1.39-29.46-.31-4.64-.63-9.17-.97-13.59l-7.33.28-6.63.7-1.16-29.18h57.71Z"/>
            <path class="cls-25" d="M615.61,268.46h-25.37l-1.72-6.17c-.71.28-2.49,1.22-5.33,2.83-1.83,1.18-3.85,2.74-6.08,4.69l-2.64-5.61c-.53-1.11-1.28-2.67-2.27-4.69l-2.5,8.95h-13.45c1.98-7.64,5.04-20.24,9.18-37.8,2.54-11.75,4.65-22.9,6.35-33.45h27.88c.87,4.86,3.23,16.16,7.1,33.91,2.13,9.28,5.09,21.73,8.86,37.34ZM586.34,253.25c-.53-1.64-1.45-4.3-2.78-7.98-.8-2.04-2.03-4.85-3.66-8.44-.71,1.79-1.83,4.73-3.34,8.81-.83,2.35-1.83,5.55-2.97,9.6.93,0,3.03-.19,6.31-.56,1.98-.28,4.13-.76,6.45-1.44Z"/>
            <path class="cls-25" d="M673.96,197.21l-1.35,29.18c-1.21-.19-3.14-.42-5.8-.7-1.64-.09-4.3-.19-7.98-.28-.19,1.83-.51,6.23-.97,13.22-.34,6.77-.9,16.71-1.67,29.83h-22.45c-.25-6.25-.71-16.07-1.39-29.46-.31-4.64-.63-9.17-.97-13.59l-7.33.28-6.63.7-1.16-29.18h57.71Z"/>
            <path class="cls-25" d="M720.86,226.39c-2.29-.53-4.02-.79-5.2-.79-1.45,0-2.78.5-3.99,1.48-1.45,1.21-2.18,2.77-2.18,4.69,0,1.48,1.33,4.34,3.99,8.58,2.66,4.24,3.99,8.13,3.99,11.69,0,5.17-1.96,9.4-5.89,12.71-3.74,3.19-8.37,4.78-13.87,4.78-5.07,0-8.81-.36-11.23-1.07-.28-1.42-.76-3.74-1.44-6.96-.43-1.73-1.04-4.04-1.81-6.91,3.4.83,5.69,1.25,6.87,1.25,4.61,0,6.91-1.75,6.91-5.24,0-2.54-.93-4.81-2.78-6.82-3.03-2.66-6.06-5.33-9.09-8.03-5.88-5.2-8.81-11.36-8.81-18.51s2.78-13.1,8.35-16.93c4.85-3.34,11.32-5.01,19.39-5.01,4.58,0,9.71.67,15.4,2l1.39,29.08Z"/>
          </g>
          <g class="cls-20">
            <text class="cls-14" transform="translate(64.47 274.46)"><tspan x="0" y="0">WICKEDSTATS</tspan></text>
          </g>
          <g class="cls-23">
            <text class="cls-11" transform="translate(70.47 268.46)"><tspan x="0" y="0">WICKEDSTATS</tspan></text>
          </g>
        </g>
      </g>
    </g>
  </g>
</svg>